<?xml version="1.0" encoding="UTF-8"?>
<svg id="Layer_1" data-name="Layer 1" xmlns="http://www.w3.org/2000/svg" version="1.1" viewBox="0 0 380.5 83.1">
  <defs>
    <style>
      .cls-1 {
        fill: #ef2626;
      }

      .cls-1, .cls-2 {
        stroke-width: 0px;
      }

      .cls-2 {
        fill: #fff;
      }
    </style>
  </defs>
  <path class="cls-1" d="M331.2,23.2c7.7,0,13.9,4.4,16.1,11.2,3,9.5-3.2,19.2-13.1,20.5-5.7.7-10.9-.3-15.1-4.4-4.7-4.6-6-10.2-3.9-16.4,2-6.1,6.5-9.4,12.8-10.6,1.1-.2,2.2-.2,3.3-.3h0ZM322.5,39.3c0,4.5,3.7,8.2,8.5,8.2s8.9-3.6,8.9-8.3-3.9-8.3-8.6-8.3-8.7,3.6-8.7,8.4h0Z"/>
  <path class="cls-1" d="M182.9,55.2c-8.1,0-14.3-4.6-16.3-11.7-2.7-9.3,3.4-18.6,13-20,5.3-.8,10.2,0,14.4,3.5,5,4.1,6.7,9.5,5.4,15.7-1.4,6.4-5.1,10.5-11.4,12.1-1.5.4-3.5.5-5,.5h0ZM174.2,39.2c-.1,4.4,3.6,8.2,8.3,8.3,5,0,8.9-3.4,9.1-8.1.1-4.5-3.7-8.4-8.4-8.5-5-.1-8.8,3.4-9,8.3h0Z"/>
  <path class="cls-1" d="M302.6,42c1.6,2.1,3.2,4.1,4.7,6.1s3.1,4,4.7,6.1c-.4,0-.7,0-1,0h-7.7c-.7,0-1.1-.2-1.5-.8-2-3.1-4-6.2-6.1-9.3-.2-.4-.5-.7-1-1v11.2h-7.3c-.2,0-.5-.4-.7-.7-.1-.2,0-.5,0-.7v-27.6c0-1.1.3-1.5,1.4-1.5h11.9c8.3.1,10.5,8.1,8.5,13.3-.8,2.2-2.5,3.6-4.6,4.4-.4,0-.7.3-1.3.4ZM299,37.4c1.5-.6,2.1-2.2,2.1-3.8s-.9-2.8-2.4-3.2c-1.1-.3-2.2-.4-3.3-.4s-.7.5-.7.8v3.1h0v3.6"/>
  <path class="cls-1" d="M231.5,23.9h-7.9v19.2c-.2,3.5-3.4,5.7-6.8,4.8-2.7-.7-4-2.6-4-5.8v-18.2h-7.8v6.4c0,4.8,0,9.7.3,14.5.3,4.2,2.3,7.3,6.3,9,3.3,1.4,6.7,1.5,10.1.9,5.6-1,9.7-5.6,9.9-11.2.2-4.3.1-8.6.1-12.8v-6.9h-.2Z"/>
  <path class="cls-2" d="M73.9,43.3h-7.9v-5.2h14.1c0,1.4-.2,2.8-.4,4.2-1.1,7.8-6.3,12.5-14.2,12.8-4.7.2-8.9-.8-12.3-4.3-3.1-3.3-4.3-7.3-4.3-11.7,0-8.9,6.5-15.5,15.4-15.9,5.5-.3,10.1,1.4,13.4,6,.3.3.5.7.8,1.2-1.8.9-3.4,1.9-5,2.7-.2,0-.3,0-.3,0-2.2-3.7-5.6-4.8-9.7-4.2-4.1.7-6.7,3.2-7.8,7.2-1.3,4.7.2,9.5,3.6,12,4.4,3.1,11.2,2,13.6-2.4.4-.7.6-1.4,1-2.3Z"/>
  <path class="cls-1" d="M360.9,44.3v10.1h-7.8v-30.4h13.8c14.6,1.5,12.5,23.7-6,20.3ZM361,37.9c9.1,2,10-8.9.7-7.6-1.7,1.7-.7,7.6-.7,7.6Z"/>
  <path class="cls-2" d="M6.6,24c0,0,.3-.1.4-.1,4.1,0,8.3-.1,12.3.3,8.4.9,13.4,8.5,12.5,16.7-.9,7.9-6.6,13.3-14.6,13.6-3.2,0-7.4,0-10.6,0M12.7,49.3c4.4,0,8.6-.2,11.3-4.3,2.3-3.4,2.3-8.3,0-11.8-2.7-4-6.9-4.3-11.2-4.2v20.3h-.1Z"/>
  <path class="cls-1" d="M281.7,34.2c-4.6-4.6-10.5-3.4-12.9-.7-2.9,3.2-3,8.3-.1,11.5,3.2,3.5,8.1,3.3,13-.5v8.3c0,.4-.3,1-.6,1.1-6.6,2.8-14.4,1.1-18.8-4-4.2-4.9-5.2-10.5-2.7-16.4,2.5-6.1,7.3-9.3,13.8-9.9,2.6-.2,5,.2,7.4,1.2.3.1.8.5.8.8v8.7h.1Z"/>
  <path class="cls-2" d="M113.6,54.5c1.4-3.2,2.6-6.1,3.9-9,3-6.9,5.9-13.8,8.9-20.7.3-.8.7-1.1,1.6-1.1,1.2.1,2.6-.3,3.5.2.8.5,1.1,2,1.5,3,3.7,8.7,7.3,17.4,10.9,26.2.2.4.3.7.5,1.3h-6.1c-.3,0-.6-.5-.7-.8-.7-1.5-1.3-3.1-2-4.6-.3-.7-.6-1-1.4-1h-10.3c-.8,0-1.2.3-1.5,1-.6,1.6-1.3,3.1-2,4.6,0,.3-.6.7-.9.7h-6v.2ZM129.1,32.3c-1.5,3.8-2.9,7.3-4.3,10.8h8.5c-1.4-3.6-2.8-7-4.3-10.8h.1Z"/>
  <path class="cls-1" d="M249.6,30.6v23.8h-7.9v-23.7h-6.6v-6.6h20.8v6.5h-6.4,0Z"/>
  <path class="cls-2" d="M95.3,29.1v-5.2h19.6v5.1h-6.7v25.4h-6.1v-25.4h-6.8Z"/>
  <path class="cls-2" d="M163.4,54.5h-15.4v-30.5h6v25.4h9.4v5.2h0Z"/>
  <path class="cls-2" d="M37.5,54.5v-30.6h5.9v30.6h-5.9Z"/>
  <path class="cls-2" d="M91.4,54.5h-5.9v-30.6h5.9v30.6Z"/>
</svg>